<mxfile host="app.diagrams.net" agent="Mozilla/5.0 (Windows NT 10.0; Win64; x64) AppleWebKit/537.36 (KHTML, like Gecko) Chrome/131.0.0.0 Safari/537.36" version="24.8.6">
  <diagram name="第 1 页" id="enGQVWd8p4HxL2KwVHsR">
    <mxGraphModel dx="910" dy="490" grid="1" gridSize="10" guides="1" tooltips="1" connect="1" arrows="1" fold="1" page="1" pageScale="1" pageWidth="827" pageHeight="1169" math="0" shadow="0">
      <root>
        <mxCell id="0" />
        <mxCell id="1" parent="0" />
        <mxCell id="ublQcuxgLo5U7vS2S66E-3" style="edgeStyle=orthogonalEdgeStyle;rounded=0;orthogonalLoop=1;jettySize=auto;html=1;entryX=0;entryY=0.5;entryDx=0;entryDy=0;" edge="1" parent="1" source="ublQcuxgLo5U7vS2S66E-1" target="ublQcuxgLo5U7vS2S66E-2">
          <mxGeometry relative="1" as="geometry" />
        </mxCell>
        <mxCell id="ublQcuxgLo5U7vS2S66E-1" value="Actor" style="shape=umlActor;verticalLabelPosition=bottom;verticalAlign=top;html=1;outlineConnect=0;" vertex="1" parent="1">
          <mxGeometry x="70" y="120" width="30" height="60" as="geometry" />
        </mxCell>
        <mxCell id="ublQcuxgLo5U7vS2S66E-11" style="edgeStyle=orthogonalEdgeStyle;rounded=0;orthogonalLoop=1;jettySize=auto;html=1;entryX=0;entryY=0.5;entryDx=0;entryDy=0;" edge="1" parent="1" source="ublQcuxgLo5U7vS2S66E-2" target="ublQcuxgLo5U7vS2S66E-10">
          <mxGeometry relative="1" as="geometry" />
        </mxCell>
        <mxCell id="ublQcuxgLo5U7vS2S66E-2" value="nginx" style="rounded=0;whiteSpace=wrap;html=1;" vertex="1" parent="1">
          <mxGeometry x="300" y="120" width="120" height="60" as="geometry" />
        </mxCell>
        <mxCell id="ublQcuxgLo5U7vS2S66E-13" style="edgeStyle=orthogonalEdgeStyle;rounded=0;orthogonalLoop=1;jettySize=auto;html=1;" edge="1" parent="1" source="ublQcuxgLo5U7vS2S66E-10" target="ublQcuxgLo5U7vS2S66E-12">
          <mxGeometry relative="1" as="geometry" />
        </mxCell>
        <mxCell id="ublQcuxgLo5U7vS2S66E-10" value="gateway" style="rounded=0;whiteSpace=wrap;html=1;" vertex="1" parent="1">
          <mxGeometry x="500" y="120" width="120" height="60" as="geometry" />
        </mxCell>
        <mxCell id="ublQcuxgLo5U7vS2S66E-12" value="xml&amp;nbsp;后端" style="rounded=0;whiteSpace=wrap;html=1;" vertex="1" parent="1">
          <mxGeometry x="690" y="50" width="120" height="60" as="geometry" />
        </mxCell>
        <mxCell id="ublQcuxgLo5U7vS2S66E-14" value="ietp&lt;div&gt;&amp;nbsp;后端&lt;/div&gt;" style="rounded=0;whiteSpace=wrap;html=1;" vertex="1" parent="1">
          <mxGeometry x="707" y="210" width="120" height="60" as="geometry" />
        </mxCell>
        <mxCell id="ublQcuxgLo5U7vS2S66E-15" style="edgeStyle=orthogonalEdgeStyle;rounded=0;orthogonalLoop=1;jettySize=auto;html=1;entryX=0.437;entryY=-0.047;entryDx=0;entryDy=0;entryPerimeter=0;" edge="1" parent="1" source="ublQcuxgLo5U7vS2S66E-10" target="ublQcuxgLo5U7vS2S66E-14">
          <mxGeometry relative="1" as="geometry" />
        </mxCell>
      </root>
    </mxGraphModel>
  </diagram>
</mxfile>
